<svg id="Capa_1" enable-background="new 0 0 512 512" height="512" viewBox="0 0 512 512" width="512" xmlns="http://www.w3.org/2000/svg"><g><g><path d="m452.85 403.59c-6.2-5.21-14.2-8.35-22.93-8.35-19.71 0-35.68 15.97-35.68 35.68 0 8.66 3.08 16.59 8.22 22.77-76.99 57.19-179.8 63.6-262.58 19.24 21.04-28.21 18.74-68.31-6.88-93.93s-65.72-27.92-93.93-6.88c-44.46-82.97-37.92-186.06 19.62-263.1 6.26 5.43 14.43 8.71 23.36 8.71 19.7 0 35.68-15.98 35.68-35.68 0-8.93-3.28-17.1-8.71-23.36 77.04-57.54 180.13-64.08 263.1-19.62-21.04 28.21-18.74 68.31 6.88 93.93s65.72 27.92 93.93 6.88c44.58 83.19 37.88 186.6-20.08 263.71z" fill="#fff"/></g><g><path d="m372.52 278.931-11.019-6.362c-12.314-7.109-12.314-26.028 0-33.138l11.02-6.362c8.539-4.93 11.465-15.849 6.535-24.388l-20.548-35.589c-4.93-8.539-15.849-11.465-24.389-6.535l-11.028 6.367c-12.353 7.132-28.69-2.328-28.69-16.564v-12.733c0-9.861-7.994-17.854-17.854-17.854h-41.095c-9.86 0-17.854 7.993-17.854 17.854v12.733c0 14.237-16.337 23.696-28.69 16.565l-11.028-6.367c-8.539-4.93-19.459-2.004-24.389 6.535l-20.547 35.589c-4.93 8.539-2.004 19.458 6.535 24.388l11.02 6.362c12.314 7.109 12.314 26.028 0 33.138l-11.02 6.362c-8.539 4.93-11.465 15.849-6.535 24.389l20.547 35.589c4.93 8.539 15.849 11.465 24.389 6.535l11.028-6.367c12.353-7.132 28.69 2.328 28.69 16.565v12.733c0 9.861 7.994 17.854 17.854 17.854h41.094c9.861 0 17.854-7.994 17.854-17.854v-12.733c0-14.237 16.338-23.697 28.69-16.565l11.027 6.367c8.539 4.93 19.459 2.005 24.389-6.535l20.548-35.589c4.931-8.54 2.005-19.46-6.534-24.39z" fill="#ced3dd"/></g><g><circle cx="256" cy="256" fill="#fff" r="43.418"/></g><g><circle cx="429.948" cy="82.052" fill="#ffce69" r="72.052"/></g><g><circle cx="82.052" cy="429.949" fill="#ffce69" r="72.052"/></g><g><circle cx="82.051" cy="82.051" fill="#c193da" r="35.676"/></g><g><circle cx="429.916" cy="430.916" fill="#c193da" r="35.676"/></g><g><path d="m235.453 396.229h41.094c15.359 0 27.854-12.495 27.854-27.854v-12.732c0-6.675 7.897-11.251 13.689-7.905l11.028 6.367c13.157 7.597 30.464 2.942 38.049-10.195l20.548-35.589c7.596-13.158 2.942-30.464-10.196-38.049l-11.019-6.362c-5.754-3.323-5.755-12.494 0-15.817l11.021-6.362c13.3-7.68 17.874-24.749 10.194-38.049l-20.548-35.589c-7.679-13.301-24.748-17.872-38.049-10.195l-11.028 6.367c-5.79 3.342-13.689-1.229-13.689-7.904v-12.733c0-15.359-12.496-27.854-27.854-27.854h-41.094c-15.358 0-27.854 12.495-27.854 27.854v12.733c0 6.675-7.898 11.249-13.69 7.904l-11.028-6.367c-13.299-7.678-30.369-3.105-38.048 10.195l-20.547 35.59c-7.597 13.158-2.942 30.463 10.195 38.048l11.019 6.362c5.755 3.322 5.757 12.494 0 15.817l-11.019 6.362c-13.138 7.585-17.793 24.891-10.196 38.049l20.547 35.589c7.586 13.138 24.891 17.792 38.049 10.195l11.028-6.367c5.791-3.343 13.69 1.227 13.69 7.905v12.732c0 15.359 12.495 27.854 27.854 27.854zm-37.203-69.648c-4.953 0-9.912 1.278-14.341 3.836l-11.028 6.367c-3.715 2.148-8.588.831-10.728-2.875l-20.547-35.589c-2.145-3.716-.832-8.589 2.875-10.729l11.019-6.361c18.853-10.882 18.852-39.575.001-50.459l-11.02-6.362c-3.707-2.14-5.02-7.013-2.875-10.728l20.547-35.59c2.166-3.749 6.978-5.039 10.729-2.875l11.028 6.367c18.911 10.918 43.69-3.445 43.69-25.225v-12.733c0-4.331 3.523-7.854 7.854-7.854h41.094c4.331 0 7.854 3.523 7.854 7.854v12.733c0 21.778 24.779 36.146 43.689 25.225l11.027-6.367c3.75-2.164 8.563-.876 10.729 2.875l20.548 35.589c2.165 3.75.875 8.563-2.875 10.729l-11.02 6.362c-18.851 10.882-18.852 39.575-.001 50.458l11.019 6.362c1.389 0 3.024 2.971 3.422 4.025.826 2.192.626 4.674-.546 6.704l-20.548 35.589c-2.138 3.707-7.013 5.02-10.728 2.875l-11.028-6.367c-18.912-10.92-43.69 3.446-43.69 25.226v12.732c0 4.331-3.523 7.854-7.854 7.854h-41.094c-4.331 0-7.854-3.523-7.854-7.854v-12.732c.001-15.838-13.56-29.062-29.348-29.062z"/><path d="m256 309.418c29.455 0 53.418-23.963 53.418-53.418s-23.963-53.418-53.418-53.418-53.418 23.963-53.418 53.418 23.963 53.418 53.418 53.418zm0-86.836c18.427 0 33.418 14.991 33.418 33.419 0 18.427-14.992 33.418-33.418 33.418s-33.418-14.992-33.418-33.419 14.991-33.418 33.418-33.418z"/><path d="m485.482 142.435c.841-.774 1.676-1.558 2.486-2.363 15.497-15.498 24.032-36.103 24.032-58.02s-8.535-42.521-24.032-58.02c-31.992-31.992-84.046-31.992-116.039 0-.812.812-1.589 1.646-2.36 2.483-83.333-41.253-183.561-33.806-259.769 19.291-7.698-5.908-17.318-9.43-27.749-9.43-25.186 0-45.676 20.49-45.676 45.676 0 10.431 3.523 20.051 9.43 27.749-53.096 76.209-60.542 176.435-19.29 259.769-16.82 15.484-26.515 37.506-26.515 60.379 0 21.917 8.535 42.521 24.032 58.02 15.998 15.998 37.005 23.993 58.02 23.993 21.009 0 42.025-7.999 58.019-23.993.811-.811 1.586-1.643 2.356-2.479 35.754 17.698 74.642 26.43 113.414 26.429 51.275 0 102.34-15.281 145.677-45.266 7.803 6.214 17.67 9.94 28.398 9.94 25.186 0 45.676-20.49 45.676-45.676 0-10.633-3.662-20.42-9.777-28.19 15.945-22.739 27.993-47.757 35.831-74.501 1.553-5.3-1.484-10.855-6.784-12.409-5.301-1.553-10.855 1.484-12.409 6.784-7.083 24.169-17.884 46.813-32.157 67.441-6.297-3.137-13.339-4.802-20.376-4.802-24.879 0-45.68 20.814-45.68 45.677 0 6.95 1.62 13.903 4.683 20.141-69.106 47.168-159.178 54.017-234.692 17.935 17.07-31.548 11.192-71.712-14.16-97.062-25.347-25.348-65.516-31.238-97.063-14.159-36.175-75.699-29.224-165.906 18.189-235.076 6.415 3.29 13.643 5.034 20.853 5.034 25.188 0 45.68-20.492 45.68-45.68 0-7.209-1.744-14.439-5.035-20.854 69.17-47.414 159.376-54.362 235.075-18.188-17.072 31.548-11.192 71.713 14.159 97.063 25.35 25.348 65.523 31.236 97.067 14.156 12.709 26.544 20.229 54.975 22.375 84.662.398 5.509 5.174 9.666 10.695 9.253 5.508-.398 9.651-5.187 9.253-10.694-2.413-33.387-11.108-65.306-25.837-95.013zm-55.565 314.157c-13.971 0-25.676-11.71-25.676-25.674.001-13.974 11.692-25.678 25.676-25.678 13.969 0 25.676 11.704 25.676 25.676-.001 14.158-11.519 25.676-25.676 25.676zm-391.743 17.234c-11.719-11.72-18.174-27.303-18.174-43.877s6.455-32.157 18.175-43.877c23.792-23.792 63.919-23.834 87.754 0 23.832 23.832 23.798 63.957 0 87.754-24.194 24.193-63.56 24.193-87.755 0zm43.877-417.451c13.963 0 25.676 11.693 25.676 25.676 0 14.157-11.518 25.676-25.676 25.676-13.982 0-25.676-11.712-25.676-25.676 0-14.157 11.519-25.676 25.676-25.676zm347.897-36.345c15.89 0 31.78 6.049 43.877 18.146 23.919 23.919 23.919 63.835 0 87.754-23.803 23.779-63.912 23.843-87.754 0-23.831-23.831-23.798-63.957 0-87.754 12.097-12.097 27.987-18.146 43.877-18.146z"/><path d="m103.196 407.926-30.939 30.94-11.935-11.935c-3.905-3.904-10.237-3.904-14.142 0-3.905 3.905-3.905 10.237 0 14.143l19.005 19.005c1.953 1.952 4.512 2.929 7.071 2.929s5.119-.977 7.071-2.929l38.011-38.011c3.905-3.905 3.905-10.237 0-14.143-3.904-3.903-10.236-3.903-14.142.001z"/><path d="m415.255 110.01c3.848 3.847 10.294 3.847 14.143 0l38.011-38.01c3.905-3.905 3.905-10.237 0-14.143-3.905-3.904-10.237-3.904-14.143 0l-30.939 30.939-11.934-11.935c-3.905-3.903-10.237-3.903-14.142 0-3.905 3.905-3.906 10.237 0 14.143z"/><path d="m509.87 278.09c-1.707-4.095-6.049-6.646-10.46-6.096-4.402.549-8.015 4.063-8.664 8.455-1.259 8.515 8.58 14.568 15.625 9.661 3.806-2.65 5.251-7.743 3.499-12.02z"/></g></g></svg>